<?xml version="1.0" encoding="UTF-8" standalone="no"?>
<!-- Created with Inkscape (http://www.inkscape.org/) -->

<svg
   xmlns:dc="http://purl.org/dc/elements/1.1/"
   xmlns:cc="http://creativecommons.org/ns#"
   xmlns:rdf="http://www.w3.org/1999/02/22-rdf-syntax-ns#"
   xmlns:svg="http://www.w3.org/2000/svg"
   xmlns="http://www.w3.org/2000/svg"
   xmlns:sodipodi="http://sodipodi.sourceforge.net/DTD/sodipodi-0.dtd"
   xmlns:inkscape="http://www.inkscape.org/namespaces/inkscape"
   width="1080"
   height="1920"
   viewBox="0 0 1080 1920"
   id="svg2"
   version="1.1"
   inkscape:version="0.92.3 (unknown)"
   sodipodi:docname="splash_background.svg">
  <defs
     id="defs4">
    <clipPath
       clipPathUnits="userSpaceOnUse"
       id="clipPath9760">
      <rect
         style="opacity:1;fill:#2f2f2f;fill-opacity:0;stroke:none;stroke-width:1.89999998;stroke-miterlimit:4;stroke-dasharray:none;stroke-opacity:1"
         id="rect9762"
         width="688"
         height="1378"
         x="-1044"
         y="-322"
         rx="10.0093"
         ry="10.0093" />
    </clipPath>
  </defs>
  <sodipodi:namedview
     id="base"
     pagecolor="#292929"
     bordercolor="#868686"
     borderopacity="1"
     inkscape:pageopacity="0"
     inkscape:pageshadow="2"
     inkscape:zoom="0.60005868"
     inkscape:cx="1087.5596"
     inkscape:cy="1300.1007"
     inkscape:document-units="px"
     inkscape:current-layer="layer6"
     showgrid="false"
     units="px"
     inkscape:window-width="1920"
     inkscape:window-height="1013"
     inkscape:window-x="-9"
     inkscape:window-y="-9"
     inkscape:window-maximized="1"
     showborder="true"
     inkscape:showpageshadow="false"
     inkscape:object-nodes="true"
     inkscape:snap-smooth-nodes="true"
     showguides="false"
     inkscape:snap-global="true">
    <inkscape:grid
       type="xygrid"
       id="grid3892" />
  </sodipodi:namedview>
  <metadata
     id="metadata7">
    <rdf:RDF>
      <cc:Work
         rdf:about="">
        <dc:format>image/svg+xml</dc:format>
        <dc:type
           rdf:resource="http://purl.org/dc/dcmitype/StillImage" />
        <dc:title></dc:title>
      </cc:Work>
    </rdf:RDF>
  </metadata>
  <g
     inkscape:groupmode="layer"
     id="layer6"
     inkscape:label="background"
     style="display:inline">
    <rect
       ry="0"
       rx="0"
       y="0"
       x="0"
       height="1920"
       width="1080"
       id="rect6479"
       style="display:inline;opacity:1;fill:#8800c7;fill-opacity:1;stroke:none;stroke-width:1.23679996;stroke-miterlimit:4;stroke-dasharray:none;stroke-opacity:1"
       inkscape:export-xdpi="58.59"
       inkscape:export-ydpi="58.59" />
  </g>
  <g
     inkscape:groupmode="layer"
     id="layer4"
     inkscape:label="design"
     transform="translate(0,640)"
     style="display:inline">
    <g
       id="g4658"
       transform="matrix(2.3702965,0,0,2.3702899,-3403.9257,-5819.9431)"
       style="display:inline;fill:#000000;fill-opacity:0.09411765;stroke-width:0.42188871">
      <path
         id="path7213"
         style="opacity:0.43600003;fill:#000000;fill-opacity:0.09411765;stroke:none;stroke-width:1.26566625;stroke-linecap:butt;stroke-linejoin:round;stroke-miterlimit:4;stroke-dasharray:none;stroke-opacity:1"
         d="m 1891.7146,2210.228 v -9.6328 l -15.2324,-15.2324 h -69.8887 l -20.0508,20.0508 l 54.9941,54.9941 z m -50.1778,50.1797 l -54.9941,54.9942 l 54.9941,54.9942 l 50.1778,-50.1779 v -9.6327 z m 50.1778,160.1679 l -50.1778,-50.1795 l -54.9941,54.996 l 54.9941,54.9942 l 50.1778,-50.1777 z m 0,109.9883 l -50.1778,-50.1776 l -54.9941,54.9941 l 54.9941,54.9942 l 50.1778,-50.1778 z m 0,109.9904 l -50.1778,-50.1797 l -54.9941,54.996 l 54.9941,54.9941 l 50.1778,-50.1776 z m 0,109.9882 l -50.1778,-50.1778 l -54.9941,54.9941 l 54.9941,54.9942 l 50.1778,-50.1776 z m 0,109.9902 l -50.1778,-50.1797 l -54.9941,54.9962 l 54.9941,54.994 l 50.1778,-50.1776 z m 0,109.9883 l -50.1778,-50.1778 l -54.9941,54.9943 l 20.0527,20.0527 h 69.8829 l 15.2363,-15.2364 z m -136.2246,24.8691 l 20.0527,-20.0526 l -43.9941,-43.9962 l -43.9961,43.9962 l 20.0527,20.0526 z m -118.7871,0 l 20.0527,-20.0526 l -35.1973,-35.1974 l -35.1972,35.1974 l 20.0527,20.0526 z m -117.0274,0 l 20.0508,-20.0526 l -28.1562,-28.1583 l -28.1583,28.1583 l 20.0528,20.0526 z m -83.5996,-1.2481 l 18.8067,-18.8045 l -18.8067,-18.8068 z m 0,-109.9882 l 18.8067,-18.8046 l -18.8067,-18.8067 z m 0,-109.9903 l 18.8067,-18.8047 l -18.8067,-18.8066 z m 0,-109.9882 l 18.8067,-18.8047 l -18.8067,-18.8067 z m 0,-109.9883 l 18.8067,-18.8067 l -18.8067,-18.8066 z m 0,-109.9902 l 18.8067,-18.8066 l -18.8067,-18.8047 z m 0,-109.9903 l 18.8067,-18.8047 l -18.8067,-18.8066 z m 0,-109.9883 l 18.8067,-18.8065 l -18.8067,-18.8048 z m 67.3867,-38.8555 l -20.0508,20.049 l 28.1583,28.1581 l 28.1562,-28.1581 l -20.0488,-20.049 z m 36.2637,130.0391 l -28.1562,-28.1582 l -28.1583,28.1582 l 28.1583,28.1563 z m 66.6855,-130.0391 l -20.0507,20.049 l 35.1972,35.1971 l 35.1973,-35.1971 l -20.0508,-20.049 z m 50.3438,130.0391 l -35.1973,-35.1973 l -35.1972,35.1973 l 35.1972,35.1974 z m 50.8457,-130.0391 l -20.0488,20.049 l 43.9961,43.996 l 43.9941,-43.996 l -20.0488,-20.049 z m 67.9414,130.0391 l -43.9941,-43.9961 l -43.9961,43.9961 l 43.9961,43.9961 z m 0,109.9884 l -43.9941,-43.9941 l -43.9961,43.9941 l 43.9961,43.9961 z m 0,109.9902 l -43.9941,-43.9961 l -43.9961,43.9961 l 43.9961,43.996 z m 0,109.9902 l -43.9941,-43.9961 l -43.9961,43.9961 l 43.9961,43.9941 z m 0,109.9882 l -43.9941,-43.9961 l -43.9961,43.9961 l 43.9961,43.9962 z m 0,109.9904 l -43.9941,-43.9962 l -43.9961,43.9962 l 43.9961,43.994 z m -118.7871,-439.9591 l -35.1973,-35.1953 l -35.1953,35.1953 l 35.1953,35.1974 z m 0,109.9902 l -35.1973,-35.1972 l -35.1972,35.1972 l 35.1972,35.1973 z m 0,109.9903 l -35.1973,-35.1973 l -35.1972,35.1973 l 35.1972,35.1953 z m 0,109.9882 l -35.1973,-35.1972 l -35.1953,35.1972 l 35.1953,35.1973 z m 0,109.9883 l -35.1973,-35.1953 l -35.1953,35.1953 l 35.1953,35.1973 z m -117.0293,-439.957 l -28.1562,-28.1563 l -28.1583,28.1563 l 28.1583,28.1582 z m 0,109.9902 l -28.1562,-28.1582 l -28.1583,28.1582 l 28.1583,28.1563 z m 0,109.9903 l -28.1562,-28.1582 l -28.1583,28.1582 l 28.1583,28.1562 z m 0,109.9882 l -28.1562,-28.1582 l -28.1583,28.1582 l 28.1583,28.1563 z m 0,109.9903 l -28.1562,-28.1582 l -28.1583,28.1562 l 28.1583,28.1582 z"
         inkscape:connector-curvature="0" />
      <path
         d="m 1436.0759,2970.5248 v 9.6329 l 15.2324,15.2325 h 69.8887 l 20.0508,-20.0508 l -54.9941,-54.9942 z m 50.1778,-50.1796 l 54.9941,-54.9941 l -54.9941,-54.9942 l -50.1778,50.1777 v 9.6329 z m -50.1778,-160.1679 l 50.1778,50.1796 l 54.9941,-54.996 l -54.9941,-54.9942 l -50.1778,50.1777 z m 0,-109.9883 l 50.1778,50.1777 l 54.9941,-54.9941 l -54.9941,-54.9942 l -50.1778,50.1778 z m 0,-109.9903 l 50.1778,50.1797 l 54.9941,-54.9961 l -54.9941,-54.9942 l -50.1778,50.1778 z m 0,-109.9882 l 50.1778,50.1777 l 54.9941,-54.9942 l -54.9941,-54.9942 l -50.1778,50.1778 z m 0,-109.9903 l 50.1778,50.1797 l 54.9941,-54.9961 l -54.9941,-54.9941 l -50.1778,50.1777 z m 0,-109.9883 l 50.1778,50.1778 l 54.9941,-54.9942 l -20.0527,-20.0527 h -69.8829 l -15.2363,15.2363 z m 136.2246,-24.8691 l -20.0527,20.0527 l 43.9941,43.996 l 43.9961,-43.996 l -20.0527,-20.0527 z m 118.7871,0 l -20.0527,20.0527 l 35.1973,35.1973 l 35.1972,-35.1973 l -20.0527,-20.0527 z m 117.0274,0 l -20.0508,20.0527 l 28.1562,28.1582 l 28.1583,-28.1582 l -20.0528,-20.0527 z m 83.5996,1.2481 l -18.8067,18.8046 l 18.8067,18.8067 z m 0,109.9882 l -18.8067,18.8047 l 18.8067,18.8067 z m 0,109.9903 l -18.8067,18.8046 l 18.8067,18.8066 z m 0,109.9882 l -18.8067,18.8047 l 18.8067,18.8067 z m 0,109.9883 l -18.8067,18.8067 l 18.8067,18.8066 z m 0,109.9903 l -18.8067,18.8066 l 18.8067,18.8047 z m 0,109.9902 l -18.8067,18.8047 l 18.8067,18.8066 z m 0,109.9883 l -18.8067,18.8066 l 18.8067,18.8047 z m -67.3867,38.8555 l 20.0508,-20.0489 l -28.1583,-28.1583 l -28.1562,28.1583 l 20.0488,20.0489 z m -36.2637,-130.0391 l 28.1562,28.1582 l 28.1583,-28.1582 l -28.1583,-28.1564 z m -66.6855,130.0391 l 20.0507,-20.0489 l -35.1972,-35.1973 l -35.1973,35.1973 l 20.0508,20.0489 z m -50.3438,-130.0391 l 35.1973,35.1973 l 35.1972,-35.1973 l -35.1972,-35.1973 z m -50.8457,130.0391 l 20.0488,-20.0489 l -43.9961,-43.9961 l -43.9941,43.9961 l 20.0488,20.0489 z m -67.9414,-130.0391 l 43.9941,43.9961 l 43.9961,-43.9961 l -43.9961,-43.9961 z m 0,-109.9883 l 43.9941,43.9941 l 43.9961,-43.9941 l -43.9961,-43.9961 z m 0,-109.9902 l 43.9941,43.9961 l 43.9961,-43.9961 l -43.9961,-43.9962 z m 0,-109.9903 l 43.9941,43.9961 l 43.9961,-43.9961 l -43.9961,-43.9942 z m 0,-109.9883 l 43.9941,43.9962 l 43.9961,-43.9962 l -43.9961,-43.996 z m 0,-109.9902 l 43.9941,43.996 l 43.9961,-43.996 l -43.9961,-43.9941 z m 118.7871,439.959 l 35.1973,35.1953 l 35.1953,-35.1953 l -35.1953,-35.1973 z m 0,-109.9902 l 35.1973,35.1972 l 35.1972,-35.1972 l -35.1972,-35.1973 z m 0,-109.9903 l 35.1973,35.1973 l 35.1972,-35.1973 l -35.1972,-35.1953 z m 0,-109.9883 l 35.1973,35.1973 l 35.1953,-35.1973 l -35.1953,-35.1972 z m 0,-109.9883 l 35.1973,35.1954 l 35.1953,-35.1954 l -35.1953,-35.1972 z m 117.0293,439.9571 l 28.1562,28.1562 l 28.1583,-28.1562 l -28.1583,-28.1582 z m 0,-109.9902 l 28.1562,28.1581 l 28.1583,-28.1581 l -28.1583,-28.1563 z m 0,-109.9903 l 28.1562,28.1582 l 28.1583,-28.1582 l -28.1583,-28.1562 z m 0,-109.9883 l 28.1562,28.1583 l 28.1583,-28.1583 l -28.1583,-28.1562 z m 0,-109.9902 l 28.1562,28.1581 l 28.1583,-28.1562 l -28.1583,-28.1581 z"
         style="opacity:0.43600003;fill:#000000;fill-opacity:0.09411765;stroke:none;stroke-width:1.26566625;stroke-linecap:butt;stroke-linejoin:round;stroke-miterlimit:4;stroke-dasharray:none;stroke-opacity:1"
         id="path7215"
         inkscape:connector-curvature="0" />
      <path
         style="opacity:0.43600003;fill:#000000;fill-opacity:0.09411765;stroke:none;stroke-width:1.26566625;stroke-linecap:butt;stroke-linejoin:round;stroke-miterlimit:4;stroke-dasharray:none;stroke-opacity:1"
         d="M 1477.0822,2872.6152 H 1437.26 v 39.8204 h 39.8222 z"
         id="path7217"
         inkscape:connector-curvature="0" />
      <path
         style="opacity:0.43600003;fill:#000000;fill-opacity:0.09411765;stroke:none;stroke-width:1.26566625;stroke-linecap:butt;stroke-linejoin:round;stroke-miterlimit:4;stroke-dasharray:none;stroke-opacity:1"
         d="m 1523.8479,2932.6095 h -26.5957 v 26.5976 z"
         id="path7219"
         inkscape:connector-curvature="0" />
      <path
         style="opacity:0.43600003;fill:#000000;fill-opacity:0.09411765;stroke:none;stroke-width:1.26566625;stroke-linecap:butt;stroke-linejoin:round;stroke-miterlimit:4;stroke-dasharray:none;stroke-opacity:1"
         d="m 1554.8537,2794.838 h -39.8203 v 39.8183 h 39.8203 z"
         id="path7221"
         inkscape:connector-curvature="0" />
      <path
         style="opacity:0.43600003;fill:#000000;fill-opacity:0.09411765;stroke:none;stroke-width:1.26566625;stroke-linecap:butt;stroke-linejoin:round;stroke-miterlimit:4;stroke-dasharray:none;stroke-opacity:1"
         d="m 1559.8322,2634.3144 h -49.7773 v 49.7755 h 49.7773 z"
         id="path7223"
         inkscape:connector-curvature="0" />
      <path
         style="opacity:0.43600003;fill:#000000;fill-opacity:0.09411765;stroke:none;stroke-width:1.26566625;stroke-linecap:butt;stroke-linejoin:round;stroke-miterlimit:4;stroke-dasharray:none;stroke-opacity:1"
         d="m 1566.0549,2472.545 h -62.2187 v 62.2186 h 62.2187 z"
         id="path7225"
         inkscape:connector-curvature="0" />
      <path
         style="opacity:0.43600003;fill:#000000;fill-opacity:0.09411765;stroke:none;stroke-width:1.26566625;stroke-linecap:butt;stroke-linejoin:round;stroke-miterlimit:4;stroke-dasharray:none;stroke-opacity:1"
         d="m 1573.8303,2309.2188 h -70.9609 l -6.8125,6.8125 v 70.961 h 77.7734 z"
         id="path7227"
         inkscape:connector-curvature="0" />
      <path
         style="opacity:0.43600003;fill:#000000;fill-opacity:0.09411765;stroke:none;stroke-width:1.26566625;stroke-linecap:butt;stroke-linejoin:round;stroke-miterlimit:4;stroke-dasharray:none;stroke-opacity:1"
         d="m 1757.1721,2699.2872 h -26.5957 v 26.5957 z"
         id="path7229"
         inkscape:connector-curvature="0" />
      <path
         style="opacity:0.43600003;fill:#000000;fill-opacity:0.09411765;stroke:none;stroke-width:1.26566625;stroke-linecap:butt;stroke-linejoin:round;stroke-miterlimit:4;stroke-dasharray:none;stroke-opacity:1"
         d="m 1788.1779,2561.5176 h -39.8222 v 39.8204 h 39.8222 z"
         id="path7231"
         inkscape:connector-curvature="0" />
      <path
         style="opacity:0.43600003;fill:#000000;fill-opacity:0.09411765;stroke:none;stroke-width:1.26566625;stroke-linecap:butt;stroke-linejoin:round;stroke-miterlimit:4;stroke-dasharray:none;stroke-opacity:1"
         d="m 1793.1506,2400.9923 h -49.7734 v 49.7753 h 49.7734 z"
         id="path7233"
         inkscape:connector-curvature="0" />
      <path
         style="opacity:0.43600003;fill:#000000;fill-opacity:0.09411765;stroke:none;stroke-width:1.26566625;stroke-linecap:butt;stroke-linejoin:round;stroke-miterlimit:4;stroke-dasharray:none;stroke-opacity:1"
         d="m 1799.3772,2273.0821 l -33.8614,-33.8595 h -28.3593 v 62.2188 h 62.2207 z"
         id="path7235"
         inkscape:connector-curvature="0" />
      <path
         style="opacity:0.43600003;fill:#000000;fill-opacity:0.09411765;stroke:none;stroke-width:1.26566625;stroke-linecap:butt;stroke-linejoin:round;stroke-miterlimit:4;stroke-dasharray:none;stroke-opacity:1"
         d="m 1834.9455,2621.5136 h -26.5957 v 26.5959 z"
         id="path7237"
         inkscape:connector-curvature="0" />
      <path
         style="opacity:0.43600003;fill:#000000;fill-opacity:0.09411765;stroke:none;stroke-width:1.26566625;stroke-linecap:butt;stroke-linejoin:round;stroke-miterlimit:4;stroke-dasharray:none;stroke-opacity:1"
         d="m 1865.9514,2483.7423 h -39.8203 v 39.8203 h 39.8203 z"
         id="path7239"
         inkscape:connector-curvature="0" />
      <path
         style="opacity:0.43600003;fill:#000000;fill-opacity:0.09411765;stroke:none;stroke-width:1.26566625;stroke-linecap:butt;stroke-linejoin:round;stroke-miterlimit:4;stroke-dasharray:none;stroke-opacity:1"
         d="m 1870.9279,2344.6348 l -21.416,-21.418 h -28.3593 v 49.7774 h 49.7753 z"
         id="path7241"
         inkscape:connector-curvature="0" />
      <path
         style="opacity:0.43600003;fill:#000000;fill-opacity:0.09411765;stroke:none;stroke-width:1.26566625;stroke-linecap:butt;stroke-linejoin:round;stroke-miterlimit:4;stroke-dasharray:none;stroke-opacity:1"
         d="m 1436.0764,2712.0899 v 49.7735 h 45.9785 v -49.7735 z"
         id="path7243"
         inkscape:connector-curvature="0" />
      <path
         style="opacity:0.43600003;fill:#000000;fill-opacity:0.09411765;stroke:none;stroke-width:1.26566625;stroke-linecap:butt;stroke-linejoin:round;stroke-miterlimit:4;stroke-dasharray:none;stroke-opacity:1"
         d="m 1436.0764,2550.3184 v 62.2188 h 52.2031 v -62.2188 z"
         id="path7245"
         inkscape:connector-curvature="0" />
      <path
         style="opacity:0.43600003;fill:#000000;fill-opacity:0.09411765;stroke:none;stroke-width:1.26566625;stroke-linecap:butt;stroke-linejoin:round;stroke-miterlimit:4;stroke-dasharray:none;stroke-opacity:1"
         d="m 1436.0764,2386.9942 v 77.7734 h 59.9824 v -77.7734 z"
         id="path7247"
         inkscape:connector-curvature="0" />
      <path
         style="opacity:0.43600003;fill:#000000;fill-opacity:0.09411765;stroke:none;stroke-width:1.26566625;stroke-linecap:butt;stroke-linejoin:round;stroke-miterlimit:4;stroke-dasharray:none;stroke-opacity:1"
         d="m 1711.6565,2185.3634 h -60.0508 v 46.082 h -70.961 l -6.8125,6.8105 v 70.9629 h 77.7754 v -77.7734 h 77.7715 v -28.3574 z m 9.9472,131.6328 h -62.2207 v 62.2187 h 62.2207 z m -6.2246,161.7714 h -49.7754 v 49.7774 h 49.7754 z m -4.9746,160.5234 h -39.8223 v 39.8204 h 39.8223 z m -31.0059,137.7696 h -26.5976 v 26.5957 z m -35.5703,-382.291 h -62.2187 v 62.2186 h 62.2187 z m -6.2207,161.7714 h -49.7773 v 49.7774 h 49.7773 z m -4.9785,160.5255 h -39.8222 v 39.8203 h 39.8222 z m -31.0058,137.7694 h -26.5957 v 26.5958 z"
         id="path7249"
         inkscape:connector-curvature="0" />
      <path
         style="opacity:0.43600003;fill:#000000;fill-opacity:0.09411765;stroke:none;stroke-width:1.26566625;stroke-linecap:butt;stroke-linejoin:round;stroke-miterlimit:4;stroke-dasharray:none;stroke-opacity:1"
         d="m 1891.7151,2564.7462 v -21.0079 h -5.5899 v 26.5976 z"
         id="path7251"
         inkscape:connector-curvature="0" />
      <path
         style="opacity:0.43600003;fill:#000000;fill-opacity:0.09411765;stroke:none;stroke-width:1.26566625;stroke-linecap:butt;stroke-linejoin:round;stroke-miterlimit:4;stroke-dasharray:none;stroke-opacity:1"
         d="m 1477.0783,2278.213 h -39.8222 v 39.8203 h 39.8203 z"
         id="path7253"
         inkscape:connector-curvature="0" />
      <path
         style="opacity:0.43600003;fill:#000000;fill-opacity:0.09411765;stroke:none;stroke-width:1.26566625;stroke-linecap:butt;stroke-linejoin:round;stroke-miterlimit:4;stroke-dasharray:none;stroke-opacity:1"
         d="m 1523.8498,2258.039 l -26.5976,-26.5936 v 26.5936 z"
         id="path7255"
         inkscape:connector-curvature="0" />
      <path
         style="opacity:0.43600003;fill:#000000;fill-opacity:0.09411765;stroke:none;stroke-width:1.26566625;stroke-linecap:butt;stroke-linejoin:round;stroke-miterlimit:4;stroke-dasharray:none;stroke-opacity:1"
         d="m 1554.8537,2355.9864 h -39.8203 v 39.8223 h 39.8203 z"
         id="path7257"
         inkscape:connector-curvature="0" />
      <path
         style="opacity:0.43600003;fill:#000000;fill-opacity:0.09411765;stroke:none;stroke-width:1.26566625;stroke-linecap:butt;stroke-linejoin:round;stroke-miterlimit:4;stroke-dasharray:none;stroke-opacity:1"
         d="m 1559.8303,2506.5567 h -49.7754 v 49.7774 h 49.7754 z"
         id="path7259"
         inkscape:connector-curvature="0" />
      <path
         style="opacity:0.43600003;fill:#000000;fill-opacity:0.09411765;stroke:none;stroke-width:1.26566625;stroke-linecap:butt;stroke-linejoin:round;stroke-miterlimit:4;stroke-dasharray:none;stroke-opacity:1"
         d="m 1566.0529,2655.8848 h -62.2207 v 62.2187 h 62.2187 z"
         id="path7261"
         inkscape:connector-curvature="0" />
      <path
         style="opacity:0.43600003;fill:#000000;fill-opacity:0.09411765;stroke:none;stroke-width:1.26566625;stroke-linecap:butt;stroke-linejoin:round;stroke-miterlimit:4;stroke-dasharray:none;stroke-opacity:1"
         d="m 1601.6252,2335.8144 l -26.5976,-26.5956 v 26.5956 z"
         id="path7263"
         inkscape:connector-curvature="0" />
      <path
         style="opacity:0.43600003;fill:#000000;fill-opacity:0.09411765;stroke:none;stroke-width:1.26566625;stroke-linecap:butt;stroke-linejoin:round;stroke-miterlimit:4;stroke-dasharray:none;stroke-opacity:1"
         d="m 1632.6272,2433.7598 h -39.8203 v 39.8223 h 39.8203 z"
         id="path7265"
         inkscape:connector-curvature="0" />
      <path
         style="opacity:0.43600003;fill:#000000;fill-opacity:0.09411765;stroke:none;stroke-width:1.26566625;stroke-linecap:butt;stroke-linejoin:round;stroke-miterlimit:4;stroke-dasharray:none;stroke-opacity:1"
         d="m 1637.6057,2584.3321 h -49.7774 v 49.7774 h 49.7774 z"
         id="path7267"
         inkscape:connector-curvature="0" />
      <path
         style="opacity:0.43600003;fill:#000000;fill-opacity:0.09411765;stroke:none;stroke-width:1.26566625;stroke-linecap:butt;stroke-linejoin:round;stroke-miterlimit:4;stroke-dasharray:none;stroke-opacity:1"
         d="m 1643.8264,2733.6601 h -62.2207 v 62.2189 h 62.2168 z"
         id="path7269"
         inkscape:connector-curvature="0" />
      <path
         style="opacity:0.43600003;fill:#000000;fill-opacity:0.09411765;stroke:none;stroke-width:1.26566625;stroke-linecap:butt;stroke-linejoin:round;stroke-miterlimit:4;stroke-dasharray:none;stroke-opacity:1"
         d="m 1679.3986,2413.588 l -26.5976,-26.5957 v 26.5957 z"
         id="path7271"
         inkscape:connector-curvature="0" />
      <path
         style="opacity:0.43600003;fill:#000000;fill-opacity:0.09411765;stroke:none;stroke-width:1.26566625;stroke-linecap:butt;stroke-linejoin:round;stroke-miterlimit:4;stroke-dasharray:none;stroke-opacity:1"
         d="m 1710.4026,2511.5351 h -39.8223 v 39.8204 h 39.8203 z"
         id="path7273"
         inkscape:connector-curvature="0" />
      <path
         style="opacity:0.43600003;fill:#000000;fill-opacity:0.09411765;stroke:none;stroke-width:1.26566625;stroke-linecap:butt;stroke-linejoin:round;stroke-miterlimit:4;stroke-dasharray:none;stroke-opacity:1"
         d="m 1715.3791,2662.1095 h -49.7754 v 49.7734 h 49.7754 z"
         id="path7275"
         inkscape:connector-curvature="0" />
      <path
         style="opacity:0.43600003;fill:#000000;fill-opacity:0.09411765;stroke:none;stroke-width:1.26566625;stroke-linecap:butt;stroke-linejoin:round;stroke-miterlimit:4;stroke-dasharray:none;stroke-opacity:1"
         d="m 1721.5998,2811.4337 h -62.2187 v 62.2186 h 62.2168 z"
         id="path7277"
         inkscape:connector-curvature="0" />
      <path
         style="opacity:0.43600003;fill:#000000;fill-opacity:0.09411765;stroke:none;stroke-width:1.26566625;stroke-linecap:butt;stroke-linejoin:round;stroke-miterlimit:4;stroke-dasharray:none;stroke-opacity:1"
         d="m 1757.1721,2491.3634 l -26.5977,-26.5977 v 26.5977 z"
         id="path7279"
         inkscape:connector-curvature="0" />
      <path
         style="opacity:0.43600003;fill:#000000;fill-opacity:0.09411765;stroke:none;stroke-width:1.26566625;stroke-linecap:butt;stroke-linejoin:round;stroke-miterlimit:4;stroke-dasharray:none;stroke-opacity:1"
         d="m 1788.174,2589.3106 h -39.8203 v 39.8203 h 39.8183 z"
         id="path7281"
         inkscape:connector-curvature="0" />
      <path
         style="opacity:0.43600003;fill:#000000;fill-opacity:0.09411765;stroke:none;stroke-width:1.26566625;stroke-linecap:butt;stroke-linejoin:round;stroke-miterlimit:4;stroke-dasharray:none;stroke-opacity:1"
         d="m 1793.1545,2739.8809 h -49.7773 v 49.7754 h 49.7773 z"
         id="path7283"
         inkscape:connector-curvature="0" />
      <path
         style="opacity:0.43600003;fill:#000000;fill-opacity:0.09411765;stroke:none;stroke-width:1.26566625;stroke-linecap:butt;stroke-linejoin:round;stroke-miterlimit:4;stroke-dasharray:none;stroke-opacity:1"
         d="m 1799.3752,2889.2091 h -62.2187 v 62.2167 h 28.3515 l 33.8672,-33.8652 z"
         id="path7285"
         inkscape:connector-curvature="0" />
      <path
         style="opacity:0.43600003;fill:#000000;fill-opacity:0.09411765;stroke:none;stroke-width:1.26566625;stroke-linecap:butt;stroke-linejoin:round;stroke-miterlimit:4;stroke-dasharray:none;stroke-opacity:1"
         d="m 1834.9455,2569.1368 l -26.5957,-26.5958 v 26.5958 z"
         id="path7287"
         inkscape:connector-curvature="0" />
      <path
         style="opacity:0.43600003;fill:#000000;fill-opacity:0.09411765;stroke:none;stroke-width:1.26566625;stroke-linecap:butt;stroke-linejoin:round;stroke-miterlimit:4;stroke-dasharray:none;stroke-opacity:1"
         d="m 1865.9494,2667.0821 h -39.8203 v 39.8222 h 39.8203 z"
         id="path7289"
         inkscape:connector-curvature="0" />
      <path
         style="opacity:0.43600003;fill:#000000;fill-opacity:0.09411765;stroke:none;stroke-width:1.26566625;stroke-linecap:butt;stroke-linejoin:round;stroke-miterlimit:4;stroke-dasharray:none;stroke-opacity:1"
         d="m 1870.9279,2817.6543 h -49.7773 v 49.7774 h 28.3555 l 21.4218,-21.4219 z"
         id="path7291"
         inkscape:connector-curvature="0" />
      <path
         style="opacity:0.43600003;fill:#000000;fill-opacity:0.09411765;stroke:none;stroke-width:1.26566625;stroke-linecap:butt;stroke-linejoin:round;stroke-miterlimit:4;stroke-dasharray:none;stroke-opacity:1"
         d="m 1573.8303,2881.4298 v -77.7755 h -77.7734 v 70.9609 l 6.8105,6.8146 z"
         id="path7293"
         inkscape:connector-curvature="0" />
      <path
         style="opacity:0.43600003;fill:#000000;fill-opacity:0.09411765;stroke:none;stroke-width:1.26566625;stroke-linecap:butt;stroke-linejoin:round;stroke-miterlimit:4;stroke-dasharray:none;stroke-opacity:1"
         d="m 1651.6037,2995.3886 h 69.9434 l 7.8281,-7.828 v -28.3574 h -77.7715 v -77.7734 h -77.7734 v 70.9628 l 6.8125,6.8106 h 70.959 z"
         id="path7295"
         inkscape:connector-curvature="0" />
      <path
         style="opacity:0.43600003;fill:#000000;fill-opacity:0.09411765;stroke:none;stroke-width:1.26566625;stroke-linecap:butt;stroke-linejoin:round;stroke-miterlimit:4;stroke-dasharray:none;stroke-opacity:1"
         d="m 1436.0764,2725.8809 v 77.7754 h 59.9785 v -77.7736 z"
         id="path7297"
         inkscape:connector-curvature="0" />
      <path
         style="opacity:0.43600003;fill:#000000;fill-opacity:0.09411765;stroke:none;stroke-width:1.26566625;stroke-linecap:butt;stroke-linejoin:round;stroke-miterlimit:4;stroke-dasharray:none;stroke-opacity:1"
         d="m 1436.0764,2578.1095 v 62.2187 h 52.2012 v -62.2187 z"
         id="path7299"
         inkscape:connector-curvature="0" />
      <path
         style="opacity:0.43600003;fill:#000000;fill-opacity:0.09411765;stroke:none;stroke-width:1.26566625;stroke-linecap:butt;stroke-linejoin:round;stroke-miterlimit:4;stroke-dasharray:none;stroke-opacity:1"
         d="m 1436.0764,2428.7851 v 49.7755 h 45.9805 v -49.7755 z"
         id="path7301"
         inkscape:connector-curvature="0" />
      <path
         style="opacity:0.43600003;fill:#000000;fill-opacity:0.09411765;stroke:none;stroke-width:1.26566625;stroke-linecap:butt;stroke-linejoin:round;stroke-miterlimit:4;stroke-dasharray:none;stroke-opacity:1"
         d="m 1891.7151,2646.9101 v -21.0038 l -5.5899,-5.5898 v 26.5936 z"
         id="path7303"
         inkscape:connector-curvature="0" />
      <circle
         transform="rotate(90)"
         r="9.1657705"
         cy="-1877.3275"
         cx="2262.1694"
         id="circle7305"
         style="display:inline;opacity:0.43600003;fill:#000000;fill-opacity:0.09411765;stroke:none;stroke-width:1.26566625;stroke-linecap:butt;stroke-linejoin:round;stroke-miterlimit:4;stroke-dasharray:none;stroke-opacity:1" />
      <circle
         transform="rotate(90)"
         r="9.1657705"
         cy="-1666.3947"
         cx="2479.5835"
         id="circle7307"
         style="display:inline;opacity:0.43600003;fill:#000000;fill-opacity:0.09411765;stroke:none;stroke-width:1.26566625;stroke-linecap:butt;stroke-linejoin:round;stroke-miterlimit:4;stroke-dasharray:none;stroke-opacity:1" />
      <circle
         transform="rotate(90)"
         r="9.1657705"
         cy="-1783.6451"
         cx="2371.1709"
         id="circle7309"
         style="display:inline;opacity:0.43600003;fill:#000000;fill-opacity:0.09411765;stroke:none;stroke-width:1.26566625;stroke-linecap:butt;stroke-linejoin:round;stroke-miterlimit:4;stroke-dasharray:none;stroke-opacity:1" />
      <circle
         transform="rotate(90)"
         r="9.1657705"
         cy="-1783.6451"
         cx="2480.762"
         id="circle7311"
         style="display:inline;opacity:0.43600003;fill:#000000;fill-opacity:0.09411765;stroke:none;stroke-width:1.26566625;stroke-linecap:butt;stroke-linejoin:round;stroke-miterlimit:4;stroke-dasharray:none;stroke-opacity:1" />
      <circle
         transform="rotate(90)"
         r="9.1657705"
         cy="-1784.2343"
         cx="2259.2234"
         id="circle7313"
         style="display:inline;opacity:0.43600003;fill:#000000;fill-opacity:0.09411765;stroke:none;stroke-width:1.26566625;stroke-linecap:butt;stroke-linejoin:round;stroke-miterlimit:4;stroke-dasharray:none;stroke-opacity:1" />
      <circle
         transform="rotate(90)"
         r="9.1657705"
         cy="-1665.2164"
         cx="2264.5261"
         id="circle7315"
         style="display:inline;opacity:0.43600003;fill:#000000;fill-opacity:0.09411765;stroke:none;stroke-width:1.26566625;stroke-linecap:butt;stroke-linejoin:round;stroke-miterlimit:4;stroke-dasharray:none;stroke-opacity:1" />
      <circle
         transform="rotate(90)"
         r="9.1657705"
         cy="-1666.984"
         cx="2371.1709"
         id="circle7317"
         style="display:inline;opacity:0.43600003;fill:#000000;fill-opacity:0.09411765;stroke:none;stroke-width:1.26566625;stroke-linecap:butt;stroke-linejoin:round;stroke-miterlimit:4;stroke-dasharray:none;stroke-opacity:1" />
      <circle
         transform="rotate(90)"
         r="9.1657705"
         cy="-1664.6271"
         cx="2592.1204"
         id="circle7319"
         style="display:inline;opacity:0.43600003;fill:#000000;fill-opacity:0.09411765;stroke:none;stroke-width:1.26566625;stroke-linecap:butt;stroke-linejoin:round;stroke-miterlimit:4;stroke-dasharray:none;stroke-opacity:1" />
      <circle
         transform="rotate(90)"
         r="9.1657705"
         cy="-1784.2343"
         cx="2592.7095"
         id="circle7321"
         style="display:inline;opacity:0.43600003;fill:#000000;fill-opacity:0.09411765;stroke:none;stroke-width:1.26566625;stroke-linecap:butt;stroke-linejoin:round;stroke-miterlimit:4;stroke-dasharray:none;stroke-opacity:1" />
      <circle
         transform="rotate(90)"
         r="9.1657705"
         cy="-1782.4667"
         cx="2702.3003"
         id="circle7323"
         style="display:inline;opacity:0.43600003;fill:#000000;fill-opacity:0.09411765;stroke:none;stroke-width:1.26566625;stroke-linecap:butt;stroke-linejoin:round;stroke-miterlimit:4;stroke-dasharray:none;stroke-opacity:1" />
      <circle
         transform="rotate(90)"
         r="9.1657705"
         cy="-1660.5028"
         cx="2701.7112"
         id="circle7325"
         style="display:inline;opacity:0.43600003;fill:#000000;fill-opacity:0.09411765;stroke:none;stroke-width:1.26566625;stroke-linecap:butt;stroke-linejoin:round;stroke-miterlimit:4;stroke-dasharray:none;stroke-opacity:1" />
      <circle
         transform="rotate(90)"
         r="9.1657705"
         cy="-1661.6813"
         cx="2814.8372"
         id="circle7327"
         style="display:inline;opacity:0.43600003;fill:#000000;fill-opacity:0.09411765;stroke:none;stroke-width:1.26566625;stroke-linecap:butt;stroke-linejoin:round;stroke-miterlimit:4;stroke-dasharray:none;stroke-opacity:1" />
      <circle
         transform="rotate(90)"
         r="9.1657705"
         cy="-1781.8776"
         cx="2809.5344"
         id="circle7329"
         style="display:inline;opacity:0.43600003;fill:#000000;fill-opacity:0.09411765;stroke:none;stroke-width:1.26566625;stroke-linecap:butt;stroke-linejoin:round;stroke-miterlimit:4;stroke-dasharray:none;stroke-opacity:1" />
      <circle
         transform="rotate(90)"
         r="9.1657705"
         cy="-1781.8776"
         cx="2923.2495"
         id="circle7331"
         style="display:inline;opacity:0.43600003;fill:#000000;fill-opacity:0.09411765;stroke:none;stroke-width:1.26566625;stroke-linecap:butt;stroke-linejoin:round;stroke-miterlimit:4;stroke-dasharray:none;stroke-opacity:1" />
      <circle
         transform="rotate(90)"
         r="9.1657705"
         cy="-1666.984"
         cx="2920.3035"
         id="circle7333"
         style="display:inline;opacity:0.43600003;fill:#000000;fill-opacity:0.09411765;stroke:none;stroke-width:1.26566625;stroke-linecap:butt;stroke-linejoin:round;stroke-miterlimit:4;stroke-dasharray:none;stroke-opacity:1" />
      <circle
         transform="rotate(90)"
         r="9.1657705"
         cy="-1545.0199"
         cx="2925.6064"
         id="circle7335"
         style="display:inline;opacity:0.43600003;fill:#000000;fill-opacity:0.09411765;stroke:none;stroke-width:1.26566625;stroke-linecap:butt;stroke-linejoin:round;stroke-miterlimit:4;stroke-dasharray:none;stroke-opacity:1" />
      <circle
         transform="rotate(90)"
         r="9.1657705"
         cy="-1548.5551"
         cx="2702.3003"
         id="circle7337"
         style="display:inline;opacity:0.43600003;fill:#000000;fill-opacity:0.09411765;stroke:none;stroke-width:1.26566625;stroke-linecap:butt;stroke-linejoin:round;stroke-miterlimit:4;stroke-dasharray:none;stroke-opacity:1" />
      <circle
         transform="rotate(90)"
         r="9.1657705"
         cy="-1547.9659"
         cx="2481.9402"
         id="circle7339"
         style="display:inline;opacity:0.43600003;fill:#000000;fill-opacity:0.09411765;stroke:none;stroke-width:1.26566625;stroke-linecap:butt;stroke-linejoin:round;stroke-miterlimit:4;stroke-dasharray:none;stroke-opacity:1" />
      <circle
         transform="rotate(90)"
         r="9.1657705"
         cy="-1550.3226"
         cx="2261.5801"
         id="circle7341"
         style="display:inline;opacity:0.43600003;fill:#000000;fill-opacity:0.09411765;stroke:none;stroke-width:1.26566625;stroke-linecap:butt;stroke-linejoin:round;stroke-miterlimit:4;stroke-dasharray:none;stroke-opacity:1" />
      <circle
         transform="rotate(90)"
         r="9.1657705"
         cy="-1451.3376"
         cx="2369.4033"
         id="circle7343"
         style="display:inline;opacity:0.43600003;fill:#000000;fill-opacity:0.09411765;stroke:none;stroke-width:1.26566625;stroke-linecap:butt;stroke-linejoin:round;stroke-miterlimit:4;stroke-dasharray:none;stroke-opacity:1" />
      <circle
         transform="rotate(90)"
         r="9.1657705"
         cy="-1450.7483"
         cx="2701.1218"
         id="circle7345"
         style="display:inline;opacity:0.43600003;fill:#000000;fill-opacity:0.09411765;stroke:none;stroke-width:1.26566625;stroke-linecap:butt;stroke-linejoin:round;stroke-miterlimit:4;stroke-dasharray:none;stroke-opacity:1" />
      <circle
         transform="rotate(90)"
         r="9.1657705"
         cy="-1881.1249"
         cx="2591.7573"
         id="circle7347"
         style="display:inline;opacity:0.43600003;fill:#000000;fill-opacity:0.09411765;stroke:none;stroke-width:1.26566625;stroke-linecap:butt;stroke-linejoin:round;stroke-miterlimit:4;stroke-dasharray:none;stroke-opacity:1" />
      <circle
         transform="rotate(90)"
         r="9.1657705"
         cy="-1881.9791"
         cx="2922.4658"
         id="circle7349"
         style="display:inline;opacity:0.43600003;fill:#000000;fill-opacity:0.09411765;stroke:none;stroke-width:1.26566625;stroke-linecap:butt;stroke-linejoin:round;stroke-miterlimit:4;stroke-dasharray:none;stroke-opacity:1" />
    </g>
  </g>
  <g
     inkscape:groupmode="layer"
     id="layer3"
     inkscape:label="color"
     transform="translate(0,640)"
     style="display:inline">
    <path
       inkscape:connector-curvature="0"
       id="path1302"
       d="M 2.049565e-5,-748 H 108.00002 v 108 H 2.049565e-5 Z"
       style="display:inline;fill:#ffffff;fill-opacity:1;fill-rule:evenodd;stroke:none;stroke-width:1px;stroke-linecap:butt;stroke-linejoin:miter;stroke-opacity:1" />
    <path
       style="display:inline;fill:#777777;fill-opacity:1;fill-rule:evenodd;stroke:none;stroke-width:1px;stroke-linecap:butt;stroke-linejoin:miter;stroke-opacity:1"
       d="m 108.00002,-748 h 108 v 108 h -108 z"
       id="path1304"
       inkscape:connector-curvature="0" />
    <path
       inkscape:connector-curvature="0"
       id="path1306"
       d="m 216.00002,-748 h 108 v 108 h -108 z"
       style="display:inline;fill:#000000;fill-opacity:1;fill-rule:evenodd;stroke:none;stroke-width:1px;stroke-linecap:butt;stroke-linejoin:miter;stroke-opacity:1" />
    <path
       style="display:inline;fill:#ae01ff;fill-opacity:1;fill-rule:evenodd;stroke:none;stroke-width:1px;stroke-linecap:butt;stroke-linejoin:miter;stroke-opacity:1"
       d="m 324.00002,-748 h 108 v 108 h -108 z"
       id="path1308"
       inkscape:connector-curvature="0" />
    <path
       inkscape:connector-curvature="0"
       id="path1310"
       d="m 432.00002,-748 h 108 v 108 h -108 z"
       style="display:inline;fill:#8800c7;fill-opacity:1;fill-rule:evenodd;stroke:none;stroke-width:1px;stroke-linecap:butt;stroke-linejoin:miter;stroke-opacity:1" />
    <path
       inkscape:connector-curvature="0"
       id="path1312"
       d="m 540.00002,-748 h 108 v 108 h -108 z"
       style="display:inline;fill:#017b0a;fill-opacity:1;fill-rule:evenodd;stroke:none;stroke-width:1px;stroke-linecap:butt;stroke-linejoin:miter;stroke-opacity:1" />
    <path
       style="display:inline;fill:#005f07;fill-opacity:1;fill-rule:evenodd;stroke:none;stroke-width:1px;stroke-linecap:butt;stroke-linejoin:miter;stroke-opacity:1"
       d="m 648.00002,-748 h 108 v 108 h -108 z"
       id="path1314"
       inkscape:connector-curvature="0" />
    <path
       style="display:inline;fill:#ff9b01;fill-opacity:1;fill-rule:evenodd;stroke:none;stroke-width:1px;stroke-linecap:butt;stroke-linejoin:miter;stroke-opacity:1"
       d="m 756.00002,-748 h 108 v 108 h -108 z"
       id="path1316"
       inkscape:connector-curvature="0" />
    <path
       inkscape:connector-curvature="0"
       id="path1318"
       d="m 864.00002,-748 h 108 v 108 h -108 z"
       style="display:inline;fill:#c77900;fill-opacity:1;fill-rule:evenodd;stroke:none;stroke-width:1px;stroke-linecap:butt;stroke-linejoin:miter;stroke-opacity:1" />
  </g>
</svg>
